<?xml version="1.0" encoding="UTF-8" standalone="no"?>
<!DOCTYPE svg PUBLIC "-//W3C//DTD SVG 1.1//EN" "http://www.w3.org/Graphics/SVG/1.1/DTD/svg11.dtd">
<svg width="100%" height="100%" viewBox="0 0 1800 1400" version="1.1" xmlns="http://www.w3.org/2000/svg" xmlns:xlink="http://www.w3.org/1999/xlink" xml:space="preserve" xmlns:serif="http://www.serif.com/" style="fill-rule:evenodd;clip-rule:evenodd;stroke-linejoin:round;stroke-miterlimit:1.41421;">
    <g transform="matrix(1,0,0,1,-3305.55,-7.03906)">
        <g id="Artboard3" transform="matrix(1.60316,0,0,1.16667,1253.57,7.03906)">
            <rect x="1279.96" y="0" width="1122.78" height="1200" style="fill:none;"/>
            <g transform="matrix(0.772397,0,0,0.993082,191.447,-20.6766)">
                <g transform="matrix(1.21635,0,0,0.985608,158.414,1.43916)">
                    <path d="M1775.91,125.365C1775.91,111.366 1767.29,100 1756.67,100L1595.14,100C1584.52,100 1575.91,111.366 1575.91,125.365C1575.91,139.364 1584.52,150.73 1595.14,150.73L1756.67,150.73C1767.29,150.73 1775.91,139.364 1775.91,125.365Z" style="fill:white;"/>
                </g>
                <g transform="matrix(0.37426,0,0,0.985608,1817.62,1.43916)">
                    <path d="M1775.91,125.365C1775.91,111.366 1747.9,100 1713.41,100L1638.41,100C1603.91,100 1575.91,111.366 1575.91,125.365C1575.91,139.364 1603.91,150.73 1638.41,150.73L1713.41,150.73C1747.9,150.73 1775.91,139.364 1775.91,125.365Z" style="fill:white;"/>
                </g>
                <g transform="matrix(2.57304,0,0,0.985608,-1979.61,101.439)">
                    <path d="M1775.91,125.365C1775.91,111.366 1771.83,100 1766.82,100L1585,100C1579.98,100 1575.91,111.366 1575.91,125.365C1575.91,139.364 1579.98,150.73 1585,150.73L1766.82,150.73C1771.83,150.73 1775.91,139.364 1775.91,125.365Z" style="fill:white;"/>
                </g>
                <g transform="matrix(0.888869,0,0,0.985608,674.488,201.439)">
                    <path d="M1775.91,125.365C1775.91,111.366 1764.12,100 1749.59,100L1602.22,100C1587.7,100 1575.91,111.366 1575.91,125.365C1575.91,139.364 1587.7,150.73 1602.22,150.73L1749.59,150.73C1764.12,150.73 1775.91,139.364 1775.91,125.365Z" style="fill:white;"/>
                </g>
                <g transform="matrix(0.888869,0,0,0.985608,875.653,201.439)">
                    <path d="M1775.91,125.365C1775.91,111.366 1764.12,100 1749.59,100L1602.22,100C1587.7,100 1575.91,111.366 1575.91,125.365C1575.91,139.364 1587.7,150.73 1602.22,150.73L1749.59,150.73C1764.12,150.73 1775.91,139.364 1775.91,125.365Z" style="fill:white;"/>
                </g>
                <g transform="matrix(0.888869,0,0,0.985608,1146.99,201.439)">
                    <path d="M1775.91,125.365C1775.91,111.366 1764.12,100 1749.59,100L1602.22,100C1587.7,100 1575.91,111.366 1575.91,125.365C1575.91,139.364 1587.7,150.73 1602.22,150.73L1749.59,150.73C1764.12,150.73 1775.91,139.364 1775.91,125.365Z" style="fill:white;"/>
                </g>
                <g transform="matrix(1.98826,0,0,0.985608,-1058.05,301.439)">
                    <path d="M1775.91,125.365C1775.91,111.366 1770.63,100 1764.14,100L1587.67,100C1581.18,100 1575.91,111.366 1575.91,125.365C1575.91,139.364 1581.18,150.73 1587.67,150.73L1764.14,150.73C1770.63,150.73 1775.91,139.364 1775.91,125.365Z" style="fill:white;"/>
                </g>
                <g transform="matrix(0.935651,0,0,0.985608,1021.81,301.439)">
                    <path d="M1775.91,125.365C1775.91,111.366 1764.7,100 1750.91,100L1600.91,100C1587.11,100 1575.91,111.366 1575.91,125.365C1575.91,139.364 1587.11,150.73 1600.91,150.73L1750.91,150.73C1764.7,150.73 1775.91,139.364 1775.91,125.365Z" style="fill:white;"/>
                </g>
                <g transform="matrix(1.16956,0,0,0.985608,-376.034,701.439)">
                    <path d="M1775.91,125.365C1775.91,111.366 1766.94,100 1755.91,100L1595.91,100C1584.87,100 1575.91,111.366 1575.91,125.365C1575.91,139.364 1584.87,150.73 1595.91,150.73L1755.91,150.73C1766.94,150.73 1775.91,139.364 1775.91,125.365Z" style="fill:white;"/>
                </g>
                <g transform="matrix(1.16956,0,0,0.985608,-376.034,801.439)">
                    <path d="M1775.91,125.365C1775.91,111.366 1766.94,100 1755.91,100L1595.91,100C1584.87,100 1575.91,111.366 1575.91,125.365C1575.91,139.364 1584.87,150.73 1595.91,150.73L1755.91,150.73C1766.94,150.73 1775.91,139.364 1775.91,125.365Z" style="fill:white;"/>
                </g>
                <g transform="matrix(1.16956,0,0,0.985608,-376.034,901.439)">
                    <path d="M1775.91,125.365C1775.91,111.366 1766.94,100 1755.91,100L1595.91,100C1584.87,100 1575.91,111.366 1575.91,125.365C1575.91,139.364 1584.87,150.73 1595.91,150.73L1755.91,150.73C1766.94,150.73 1775.91,139.364 1775.91,125.365Z" style="fill:white;"/>
                </g>
                <g transform="matrix(1.16956,0,0,0.985608,-376.034,1001.44)">
                    <path d="M1775.91,125.365C1775.91,111.366 1766.94,100 1755.91,100L1595.91,100C1584.87,100 1575.91,111.366 1575.91,125.365C1575.91,139.364 1584.87,150.73 1595.91,150.73L1755.91,150.73C1766.94,150.73 1775.91,139.364 1775.91,125.365Z" style="fill:white;"/>
                </g>
                <g transform="matrix(1.16956,0,0,0.985608,-376.034,1.43916)">
                    <path d="M1775.91,125.365C1775.91,111.366 1766.94,100 1755.91,100L1595.91,100C1584.87,100 1575.91,111.366 1575.91,125.365C1575.91,139.364 1584.87,150.73 1595.91,150.73L1755.91,150.73C1766.94,150.73 1775.91,139.364 1775.91,125.365Z" style="fill:white;"/>
                </g>
                <g transform="matrix(1.16956,0,0,0.985608,-376.034,101.439)">
                    <path d="M1775.91,125.365C1775.91,111.366 1766.94,100 1755.91,100L1595.91,100C1584.87,100 1575.91,111.366 1575.91,125.365C1575.91,139.364 1584.87,150.73 1595.91,150.73L1755.91,150.73C1766.94,150.73 1775.91,139.364 1775.91,125.365Z" style="fill:white;"/>
                </g>
                <g transform="matrix(1.16956,0,0,0.985608,-376.034,201.439)">
                    <path d="M1775.91,125.365C1775.91,111.366 1766.94,100 1755.91,100L1595.91,100C1584.87,100 1575.91,111.366 1575.91,125.365C1575.91,139.364 1584.87,150.73 1595.91,150.73L1755.91,150.73C1766.94,150.73 1775.91,139.364 1775.91,125.365Z" style="fill:white;"/>
                </g>
                <g transform="matrix(1.16956,0,0,0.985608,-376.034,301.439)">
                    <path d="M1775.91,125.365C1775.91,111.366 1766.94,100 1755.91,100L1595.91,100C1584.87,100 1575.91,111.366 1575.91,125.365C1575.91,139.364 1584.87,150.73 1595.91,150.73L1755.91,150.73C1766.94,150.73 1775.91,139.364 1775.91,125.365Z" style="fill:white;"/>
                </g>
                <g transform="matrix(2.57304,0,0,0.985608,-2587.78,401.439)">
                    <path d="M1775.91,125.365C1775.91,111.366 1771.83,100 1766.82,100L1585,100C1579.98,100 1575.91,111.366 1575.91,125.365C1575.91,139.364 1579.98,150.73 1585,150.73L1766.82,150.73C1771.83,150.73 1775.91,139.364 1775.91,125.365Z" style="fill:white;"/>
                </g>
                <g transform="matrix(1.8713,0,0,0.985608,-546.257,401.439)">
                    <path d="M1775.91,125.365C1775.91,111.366 1770.31,100 1763.41,100L1588.41,100C1581.51,100 1575.91,111.366 1575.91,125.365C1575.91,139.364 1581.51,150.73 1588.41,150.73L1763.41,150.73C1770.31,150.73 1775.91,139.364 1775.91,125.365Z" style="fill:white;"/>
                </g>
                <g transform="matrix(1.52043,0,0,0.985608,-390.972,401.439)">
                    <path d="M1775.91,125.365C1775.91,111.366 1769.01,100 1760.52,100L1591.29,100C1582.8,100 1575.91,111.366 1575.91,125.365C1575.91,139.364 1582.8,150.73 1591.29,150.73L1760.52,150.73C1769.01,150.73 1775.91,139.364 1775.91,125.365Z" style="fill:white;"/>
                </g>
                <g transform="matrix(1.52043,0,0,0.985608,-928.971,501.439)">
                    <path d="M1775.91,125.365C1775.91,111.366 1769.01,100 1760.52,100L1591.29,100C1582.8,100 1575.91,111.366 1575.91,125.365C1575.91,139.364 1582.8,150.73 1591.29,150.73L1760.52,150.73C1769.01,150.73 1775.91,139.364 1775.91,125.365Z" style="fill:white;"/>
                </g>
                <g transform="matrix(2.01165,0,0,0.985608,-837.606,501.439)">
                    <path d="M1775.91,125.365C1775.91,111.366 1770.7,100 1764.28,100L1587.53,100C1581.12,100 1575.91,111.366 1575.91,125.365C1575.91,139.364 1581.12,150.73 1587.53,150.73L1764.28,150.73C1770.7,150.73 1775.91,139.364 1775.91,125.365Z" style="fill:white;"/>
                </g>
                <g transform="matrix(2.57304,0,0,0.985608,-2260.3,501.439)">
                    <path d="M1775.91,125.365C1775.91,111.366 1771.83,100 1766.82,100L1585,100C1579.98,100 1575.91,111.366 1575.91,125.365C1575.91,139.364 1579.98,150.73 1585,150.73L1766.82,150.73C1771.83,150.73 1775.91,139.364 1775.91,125.365Z" style="fill:white;"/>
                </g>
                <g transform="matrix(2.35457,0,0,0.985608,-1799.05,601.439)">
                    <path d="M1775.91,125.365C1775.91,111.366 1771.45,100 1765.97,100L1585.84,100C1580.36,100 1575.91,111.366 1575.91,125.365C1575.91,139.364 1580.36,150.73 1585.84,150.73L1765.97,150.73C1771.45,150.73 1775.91,139.364 1775.91,125.365Z" style="fill:white;"/>
                </g>
                <g transform="matrix(1.98826,0,0,0.985608,-1666.22,601.439)">
                    <path d="M1775.91,125.365C1775.91,111.366 1770.63,100 1764.14,100L1587.67,100C1581.18,100 1575.91,111.366 1575.91,125.365C1575.91,139.364 1581.18,150.73 1587.67,150.73L1764.14,150.73C1770.63,150.73 1775.91,139.364 1775.91,125.365Z" style="fill:white;"/>
                </g>
                <g transform="matrix(0.494053,0,0,0.685592,1119.36,39.9894)">
                    <ellipse cx="2521.9" cy="123.996" rx="47.346" ry="36.465" style="fill:white;"/>
                </g>
                <g transform="matrix(0.494053,0,0,0.685592,1390.7,140.56)">
                    <ellipse cx="2521.9" cy="123.996" rx="47.346" ry="36.465" style="fill:white;"/>
                </g>
                <g transform="matrix(0.494053,0,0,0.685592,1255.03,239.989)">
                    <ellipse cx="2521.9" cy="123.996" rx="47.346" ry="36.465" style="fill:white;"/>
                </g>
                <g transform="matrix(0.494053,0,0,0.685592,1484.22,339.989)">
                    <ellipse cx="2521.9" cy="123.996" rx="47.346" ry="36.465" style="fill:white;"/>
                </g>
                <g transform="matrix(0.494053,0,0,0.685592,1110.01,439.989)">
                    <ellipse cx="2521.9" cy="123.996" rx="47.346" ry="36.465" style="fill:white;"/>
                </g>
                <g transform="matrix(0.494053,0,0,0.685592,1535.73,539.989)">
                    <ellipse cx="2521.9" cy="123.996" rx="47.346" ry="36.465" style="fill:white;"/>
                </g>
                <g transform="matrix(1.21635,0,0,-0.985608,160.95,1248.56)">
                    <path d="M1775.91,125.365C1775.91,111.366 1767.29,100 1756.67,100L1595.14,100C1584.52,100 1575.91,111.366 1575.91,125.365C1575.91,139.364 1584.52,150.73 1595.14,150.73L1756.67,150.73C1767.29,150.73 1775.91,139.364 1775.91,125.365Z" style="fill:white;"/>
                </g>
                <g transform="matrix(0.37426,0,0,-0.985608,1820.16,1248.56)">
                    <path d="M1775.91,125.365C1775.91,111.366 1747.9,100 1713.41,100L1638.41,100C1603.91,100 1575.91,111.366 1575.91,125.365C1575.91,139.364 1603.91,150.73 1638.41,150.73L1713.41,150.73C1747.9,150.73 1775.91,139.364 1775.91,125.365Z" style="fill:white;"/>
                </g>
                <g transform="matrix(2.57304,0,0,-0.985608,-1977.07,1148.56)">
                    <path d="M1775.91,125.365C1775.91,111.366 1771.83,100 1766.82,100L1585,100C1579.98,100 1575.91,111.366 1575.91,125.365C1575.91,139.364 1579.98,150.73 1585,150.73L1766.82,150.73C1771.83,150.73 1775.91,139.364 1775.91,125.365Z" style="fill:white;"/>
                </g>
                <g transform="matrix(0.888869,0,0,-0.985608,677.025,1048.56)">
                    <path d="M1775.91,125.365C1775.91,111.366 1764.12,100 1749.59,100L1602.22,100C1587.7,100 1575.91,111.366 1575.91,125.365C1575.91,139.364 1587.7,150.73 1602.22,150.73L1749.59,150.73C1764.12,150.73 1775.91,139.364 1775.91,125.365Z" style="fill:white;"/>
                </g>
                <g transform="matrix(0.888869,0,0,-0.985608,878.19,1048.56)">
                    <path d="M1775.91,125.365C1775.91,111.366 1764.12,100 1749.59,100L1602.22,100C1587.7,100 1575.91,111.366 1575.91,125.365C1575.91,139.364 1587.7,150.73 1602.22,150.73L1749.59,150.73C1764.12,150.73 1775.91,139.364 1775.91,125.365Z" style="fill:white;"/>
                </g>
                <g transform="matrix(0.888869,0,0,-0.985608,1149.53,1048.56)">
                    <path d="M1775.91,125.365C1775.91,111.366 1764.12,100 1749.59,100L1602.22,100C1587.7,100 1575.91,111.366 1575.91,125.365C1575.91,139.364 1587.7,150.73 1602.22,150.73L1749.59,150.73C1764.12,150.73 1775.91,139.364 1775.91,125.365Z" style="fill:white;"/>
                </g>
                <g transform="matrix(1.98826,0,0,-0.985608,-1055.51,948.561)">
                    <path d="M1775.91,125.365C1775.91,111.366 1770.63,100 1764.14,100L1587.67,100C1581.18,100 1575.91,111.366 1575.91,125.365C1575.91,139.364 1581.18,150.73 1587.67,150.73L1764.14,150.73C1770.63,150.73 1775.91,139.364 1775.91,125.365Z" style="fill:white;"/>
                </g>
                <g transform="matrix(0.935651,0,0,-0.985608,1024.34,948.561)">
                    <path d="M1775.91,125.365C1775.91,111.366 1764.7,100 1750.91,100L1600.91,100C1587.11,100 1575.91,111.366 1575.91,125.365C1575.91,139.364 1587.11,150.73 1600.91,150.73L1750.91,150.73C1764.7,150.73 1775.91,139.364 1775.91,125.365Z" style="fill:white;"/>
                </g>
                <g transform="matrix(1.52043,3.63565e-19,-2.067e-19,-0.985608,79.9457,848.561)">
                    <path d="M1775.91,125.365C1775.91,111.366 1769.01,100 1760.52,100L1591.29,100C1582.8,100 1575.91,111.366 1575.91,125.365C1575.91,139.364 1582.8,150.73 1591.29,150.73L1760.52,150.73C1769.01,150.73 1775.91,139.364 1775.91,125.365Z" style="fill:white;"/>
                </g>
                <g transform="matrix(0.494053,0,0,-0.685592,1121.9,1210.01)">
                    <ellipse cx="2521.9" cy="123.996" rx="47.346" ry="36.465" style="fill:white;"/>
                </g>
                <g transform="matrix(0.494053,0,0,-0.685592,1393.24,1109.44)">
                    <ellipse cx="2521.9" cy="123.996" rx="47.346" ry="36.465" style="fill:white;"/>
                </g>
                <g transform="matrix(0.494053,0,0,-0.685592,1257.57,1010.01)">
                    <ellipse cx="2521.9" cy="123.996" rx="47.346" ry="36.465" style="fill:white;"/>
                </g>
                <g transform="matrix(0.494053,0,0,-0.685592,1486.76,910.011)">
                    <ellipse cx="2521.9" cy="123.996" rx="47.346" ry="36.465" style="fill:white;"/>
                </g>
                <g transform="matrix(0.494053,0,0,-0.685592,1183.27,810.011)">
                    <ellipse cx="2521.9" cy="123.996" rx="47.346" ry="36.465" style="fill:white;"/>
                </g>
            </g>
        </g>
    </g>
</svg>
